<mxfile host="app.diagrams.net" modified="2024-05-07T07:30:56.914Z" agent="Mozilla/5.0 (Windows NT 10.0; Win64; x64) AppleWebKit/537.36 (KHTML, like Gecko) Chrome/124.0.0.0 Safari/537.36" etag="MUWo_7TSWYc1-6Pgqq55" version="24.3.1" type="device">
  <diagram name="Page-1" id="AXQzxZPeRJ-sjg1GJKHG">
    <mxGraphModel dx="1500" dy="757" grid="1" gridSize="10" guides="1" tooltips="1" connect="1" arrows="1" fold="1" page="1" pageScale="1" pageWidth="1169" pageHeight="827" background="#E0E0E0" math="0" shadow="0">
      <root>
        <mxCell id="0" />
        <mxCell id="1" parent="0" />
        <mxCell id="S1GzVRRmtlZRb4Uh5KsV-60" style="rounded=0;orthogonalLoop=1;jettySize=auto;html=1;exitX=1;exitY=0.5;exitDx=0;exitDy=0;entryX=0;entryY=0.5;entryDx=0;entryDy=0;" edge="1" parent="1" source="S1GzVRRmtlZRb4Uh5KsV-1" target="S1GzVRRmtlZRb4Uh5KsV-10">
          <mxGeometry relative="1" as="geometry" />
        </mxCell>
        <mxCell id="S1GzVRRmtlZRb4Uh5KsV-1" value="ญาติผู้ป่วย รพสต&lt;br&gt;Patient Relative from HPH" style="rounded=0;whiteSpace=wrap;html=1;" vertex="1" parent="1">
          <mxGeometry x="200" y="240" width="120" height="60" as="geometry" />
        </mxCell>
        <mxCell id="S1GzVRRmtlZRb4Uh5KsV-2" value="พยาบาลวิชาชีพ&lt;br&gt;นักวิชาการสาธารณสุข&lt;br&gt;professional nurse&lt;br&gt;&amp;nbsp;Public Health Technical Officer" style="rounded=0;whiteSpace=wrap;html=1;" vertex="1" parent="1">
          <mxGeometry x="840" y="250" width="180" height="80" as="geometry" />
        </mxCell>
        <mxCell id="S1GzVRRmtlZRb4Uh5KsV-55" style="rounded=0;orthogonalLoop=1;jettySize=auto;html=1;exitX=1;exitY=0.5;exitDx=0;exitDy=0;entryX=0.5;entryY=1;entryDx=0;entryDy=0;" edge="1" parent="1" source="S1GzVRRmtlZRb4Uh5KsV-3" target="S1GzVRRmtlZRb4Uh5KsV-52">
          <mxGeometry relative="1" as="geometry" />
        </mxCell>
        <mxCell id="S1GzVRRmtlZRb4Uh5KsV-3" value="ญาติผู้ป่วย รพ อื่นๆ&lt;br&gt;Patient Relative from&lt;br&gt;Hospital" style="rounded=0;whiteSpace=wrap;html=1;" vertex="1" parent="1">
          <mxGeometry x="210" y="545" width="120" height="60" as="geometry" />
        </mxCell>
        <mxCell id="S1GzVRRmtlZRb4Uh5KsV-6" value="อุปกรณ์ทางการแพทย์&lt;div&gt;medical equipment&lt;/div&gt;" style="rounded=0;whiteSpace=wrap;html=1;" vertex="1" parent="1">
          <mxGeometry x="860" y="550" width="120" height="60" as="geometry" />
        </mxCell>
        <mxCell id="S1GzVRRmtlZRb4Uh5KsV-61" style="rounded=0;orthogonalLoop=1;jettySize=auto;html=1;exitX=1;exitY=0.5;exitDx=0;exitDy=0;" edge="1" parent="1" source="S1GzVRRmtlZRb4Uh5KsV-10" target="S1GzVRRmtlZRb4Uh5KsV-2">
          <mxGeometry relative="1" as="geometry" />
        </mxCell>
        <mxCell id="S1GzVRRmtlZRb4Uh5KsV-10" value="ลงทะเบียนยืม&lt;br&gt;Register contract" style="rhombus;whiteSpace=wrap;html=1;" vertex="1" parent="1">
          <mxGeometry x="450" y="247" width="160" height="56" as="geometry" />
        </mxCell>
        <mxCell id="S1GzVRRmtlZRb4Uh5KsV-13" value="P_name" style="ellipse;whiteSpace=wrap;html=1;" vertex="1" parent="1">
          <mxGeometry x="110" y="340" width="80" height="50" as="geometry" />
        </mxCell>
        <mxCell id="S1GzVRRmtlZRb4Uh5KsV-16" value="P_HN" style="ellipse;whiteSpace=wrap;html=1;" vertex="1" parent="1">
          <mxGeometry x="70" y="280" width="80" height="50" as="geometry" />
        </mxCell>
        <mxCell id="S1GzVRRmtlZRb4Uh5KsV-17" value="P_IDNo" style="ellipse;whiteSpace=wrap;html=1;" vertex="1" parent="1">
          <mxGeometry x="70" y="210" width="80" height="50" as="geometry" />
        </mxCell>
        <mxCell id="S1GzVRRmtlZRb4Uh5KsV-19" value="P_age" style="ellipse;whiteSpace=wrap;html=1;" vertex="1" parent="1">
          <mxGeometry x="150" y="170" width="80" height="50" as="geometry" />
        </mxCell>
        <mxCell id="S1GzVRRmtlZRb4Uh5KsV-20" value="P_address" style="ellipse;whiteSpace=wrap;html=1;" vertex="1" parent="1">
          <mxGeometry x="300" y="180" width="80" height="50" as="geometry" />
        </mxCell>
        <mxCell id="S1GzVRRmtlZRb4Uh5KsV-21" value="P_medhis" style="ellipse;whiteSpace=wrap;html=1;" vertex="1" parent="1">
          <mxGeometry x="230" y="150" width="80" height="50" as="geometry" />
        </mxCell>
        <mxCell id="S1GzVRRmtlZRb4Uh5KsV-23" value="borrow_date" style="ellipse;whiteSpace=wrap;html=1;" vertex="1" parent="1">
          <mxGeometry x="480" y="120" width="80" height="50" as="geometry" />
        </mxCell>
        <mxCell id="S1GzVRRmtlZRb4Uh5KsV-24" value="return_date" style="ellipse;whiteSpace=wrap;html=1;" vertex="1" parent="1">
          <mxGeometry x="420" y="160" width="80" height="50" as="geometry" />
        </mxCell>
        <mxCell id="S1GzVRRmtlZRb4Uh5KsV-26" value="staff_name" style="ellipse;whiteSpace=wrap;html=1;" vertex="1" parent="1">
          <mxGeometry x="750" y="170" width="80" height="50" as="geometry" />
        </mxCell>
        <mxCell id="S1GzVRRmtlZRb4Uh5KsV-27" value="staff_position" style="ellipse;whiteSpace=wrap;html=1;" vertex="1" parent="1">
          <mxGeometry x="830" y="130" width="80" height="50" as="geometry" />
        </mxCell>
        <mxCell id="S1GzVRRmtlZRb4Uh5KsV-28" value="staff_department" style="ellipse;whiteSpace=wrap;html=1;" vertex="1" parent="1">
          <mxGeometry x="930" y="140" width="110" height="50" as="geometry" />
        </mxCell>
        <mxCell id="S1GzVRRmtlZRb4Uh5KsV-29" value="staff_phone" style="ellipse;whiteSpace=wrap;html=1;" vertex="1" parent="1">
          <mxGeometry x="1020" y="180" width="80" height="50" as="geometry" />
        </mxCell>
        <mxCell id="S1GzVRRmtlZRb4Uh5KsV-30" value="staff_email" style="ellipse;whiteSpace=wrap;html=1;" vertex="1" parent="1">
          <mxGeometry x="1050" y="245" width="80" height="50" as="geometry" />
        </mxCell>
        <mxCell id="S1GzVRRmtlZRb4Uh5KsV-31" value="equipmentID" style="ellipse;whiteSpace=wrap;html=1;" vertex="1" parent="1">
          <mxGeometry x="570" y="130" width="80" height="50" as="geometry" />
        </mxCell>
        <mxCell id="S1GzVRRmtlZRb4Uh5KsV-32" value="equipment_name" style="ellipse;whiteSpace=wrap;html=1;" vertex="1" parent="1">
          <mxGeometry x="585" y="180" width="120" height="50" as="geometry" />
        </mxCell>
        <mxCell id="S1GzVRRmtlZRb4Uh5KsV-34" value="equipmentID" style="ellipse;whiteSpace=wrap;html=1;" vertex="1" parent="1">
          <mxGeometry x="760" y="620" width="80" height="50" as="geometry" />
        </mxCell>
        <mxCell id="S1GzVRRmtlZRb4Uh5KsV-35" value="equipment_name" style="ellipse;whiteSpace=wrap;html=1;" vertex="1" parent="1">
          <mxGeometry x="775" y="670" width="120" height="50" as="geometry" />
        </mxCell>
        <mxCell id="S1GzVRRmtlZRb4Uh5KsV-36" value="equipmentStatus" style="ellipse;whiteSpace=wrap;html=1;" vertex="1" parent="1">
          <mxGeometry x="900" y="670" width="110" height="50" as="geometry" />
        </mxCell>
        <mxCell id="S1GzVRRmtlZRb4Uh5KsV-39" value="equipmentPic" style="ellipse;whiteSpace=wrap;html=1;" vertex="1" parent="1">
          <mxGeometry x="990" y="630" width="80" height="50" as="geometry" />
        </mxCell>
        <mxCell id="S1GzVRRmtlZRb4Uh5KsV-40" value="equipmentS/N" style="ellipse;whiteSpace=wrap;html=1;" vertex="1" parent="1">
          <mxGeometry x="1050" y="580" width="80" height="50" as="geometry" />
        </mxCell>
        <mxCell id="S1GzVRRmtlZRb4Uh5KsV-41" value="equipmentModel" style="ellipse;whiteSpace=wrap;html=1;" vertex="1" parent="1">
          <mxGeometry x="1050" y="530" width="100" height="50" as="geometry" />
        </mxCell>
        <mxCell id="S1GzVRRmtlZRb4Uh5KsV-46" value="P_No" style="ellipse;whiteSpace=wrap;html=1;" vertex="1" parent="1">
          <mxGeometry x="110" y="590" width="80" height="50" as="geometry" />
        </mxCell>
        <mxCell id="S1GzVRRmtlZRb4Uh5KsV-47" value="phone" style="ellipse;whiteSpace=wrap;html=1;" vertex="1" parent="1">
          <mxGeometry x="280" y="350" width="80" height="50" as="geometry" />
        </mxCell>
        <mxCell id="S1GzVRRmtlZRb4Uh5KsV-48" value="R_name" style="ellipse;whiteSpace=wrap;html=1;" vertex="1" parent="1">
          <mxGeometry x="200" y="350" width="80" height="50" as="geometry" />
        </mxCell>
        <mxCell id="S1GzVRRmtlZRb4Uh5KsV-50" value="R_name" style="ellipse;whiteSpace=wrap;html=1;" vertex="1" parent="1">
          <mxGeometry x="170" y="630" width="80" height="50" as="geometry" />
        </mxCell>
        <mxCell id="S1GzVRRmtlZRb4Uh5KsV-51" value="phone" style="ellipse;whiteSpace=wrap;html=1;" vertex="1" parent="1">
          <mxGeometry x="250" y="640" width="80" height="50" as="geometry" />
        </mxCell>
        <mxCell id="S1GzVRRmtlZRb4Uh5KsV-54" style="rounded=0;orthogonalLoop=1;jettySize=auto;html=1;exitX=0.5;exitY=0;exitDx=0;exitDy=0;entryX=0.5;entryY=1;entryDx=0;entryDy=0;" edge="1" parent="1" source="S1GzVRRmtlZRb4Uh5KsV-52" target="S1GzVRRmtlZRb4Uh5KsV-2">
          <mxGeometry relative="1" as="geometry" />
        </mxCell>
        <mxCell id="S1GzVRRmtlZRb4Uh5KsV-56" style="rounded=0;orthogonalLoop=1;jettySize=auto;html=1;exitX=1;exitY=0.5;exitDx=0;exitDy=0;entryX=0;entryY=0.5;entryDx=0;entryDy=0;" edge="1" parent="1" source="S1GzVRRmtlZRb4Uh5KsV-52" target="S1GzVRRmtlZRb4Uh5KsV-6">
          <mxGeometry relative="1" as="geometry" />
        </mxCell>
        <mxCell id="S1GzVRRmtlZRb4Uh5KsV-52" value="ประเมินผู้ป่วย&lt;br&gt;Examiation patient" style="rhombus;whiteSpace=wrap;html=1;" vertex="1" parent="1">
          <mxGeometry x="630" y="464" width="155" height="60" as="geometry" />
        </mxCell>
        <mxCell id="S1GzVRRmtlZRb4Uh5KsV-53" value="exam_result" style="ellipse;whiteSpace=wrap;html=1;" vertex="1" parent="1">
          <mxGeometry x="775" y="420" width="80" height="50" as="geometry" />
        </mxCell>
        <mxCell id="S1GzVRRmtlZRb4Uh5KsV-57" style="rounded=0;orthogonalLoop=1;jettySize=auto;html=1;exitX=0;exitY=1;exitDx=0;exitDy=0;entryX=0.686;entryY=0.207;entryDx=0;entryDy=0;entryPerimeter=0;endArrow=none;endFill=0;" edge="1" parent="1" source="S1GzVRRmtlZRb4Uh5KsV-53" target="S1GzVRRmtlZRb4Uh5KsV-52">
          <mxGeometry relative="1" as="geometry" />
        </mxCell>
        <mxCell id="S1GzVRRmtlZRb4Uh5KsV-59" value="exam_pic" style="ellipse;whiteSpace=wrap;html=1;" vertex="1" parent="1">
          <mxGeometry x="820" y="460" width="80" height="50" as="geometry" />
        </mxCell>
      </root>
    </mxGraphModel>
  </diagram>
</mxfile>
